<?xml version="1.0" standalone="no"?>
<!DOCTYPE svg PUBLIC "-//W3C//DTD SVG 20010904//EN"
 "http://www.w3.org/TR/2001/REC-SVG-20010904/DTD/svg10.dtd">
<svg version="1.0" xmlns="http://www.w3.org/2000/svg"
 width="1922.000000pt" height="1922.000000pt" viewBox="0 0 1922.000000 1922.000000"
 preserveAspectRatio="xMidYMid meet">
<metadata>
Created by potrace 1.14, written by Peter Selinger 2001-2017
</metadata>
<g transform="translate(0.000000,1922.000000) scale(0.100000,-0.100000)"
fill="#000000" stroke="none">
<path d="M10887 19214 c-1 -1 -68 -4 -148 -8 -80 -4 -156 -8 -170 -11 -23 -3
-118 -11 -259 -21 -182 -12 -304 -47 -366 -105 -11 -10 -30 -19 -42 -19 -14 0
-26 -9 -31 -22 -5 -13 -21 -54 -36 -93 -15 -38 -36 -90 -47 -114 -11 -24 -28
-66 -39 -94 -32 -81 -103 -236 -191 -415 -84 -172 -290 -556 -310 -577 -8 -9
-17 -1 -83 76 -37 44 -85 147 -134 286 -90 254 -95 265 -143 306 -41 34 -63
42 -110 38 -57 -4 -169 -165 -217 -309 -17 -53 -39 -201 -33 -224 1 -3 -24
-33 -56 -65 -148 -152 -172 -325 -53 -391 71 -40 135 -30 326 50 140 60 203
78 266 78 43 0 105 -15 121 -29 4 -4 -7 -30 -26 -58 -19 -28 -35 -56 -37 -61
-11 -27 -390 -604 -482 -732 -23 -33 -62 -88 -87 -124 -25 -36 -49 -65 -55
-65 -14 -1 -82 93 -116 161 -16 31 -49 114 -73 185 -90 262 -111 298 -185 330
-47 20 -85 8 -132 -40 -105 -109 -173 -277 -183 -449 -3 -45 -8 -54 -59 -105
-111 -111 -157 -256 -104 -333 35 -52 69 -72 127 -75 62 -3 107 10 234 64 171
73 230 88 330 83 20 -2 27 -6 23 -16 -7 -19 -120 -172 -441 -599 -53 -70 -96
-132 -96 -138 0 -6 -9 -18 -20 -27 -11 -10 -24 -37 -29 -64 -18 -103 7 -239
79 -414 22 -54 52 -128 66 -164 14 -36 62 -153 106 -260 75 -179 95 -226 165
-378 13 -29 33 -58 43 -65 11 -6 20 -15 20 -18 0 -3 -35 -80 -79 -170 -43 -90
-90 -189 -104 -219 -14 -30 -57 -122 -96 -203 -39 -82 -71 -150 -71 -152 0 -2
-31 -68 -69 -147 -65 -135 -90 -188 -166 -353 -18 -39 -40 -76 -49 -84 -9 -7
-16 -23 -16 -34 0 -19 -32 -93 -145 -332 -23 -49 -57 -121 -75 -160 -80 -174
-211 -457 -246 -530 -20 -44 -38 -82 -39 -85 -1 -3 -15 -34 -32 -70 -17 -36
-41 -87 -53 -115 -12 -27 -47 -101 -76 -164 -30 -62 -54 -115 -54 -117 0 -2
-23 -52 -51 -111 -52 -109 -58 -122 -147 -318 -28 -60 -69 -150 -92 -200 -23
-49 -51 -110 -62 -135 -18 -38 -102 -221 -243 -525 -17 -38 -40 -88 -50 -110
-10 -22 -44 -95 -76 -163 -33 -68 -59 -125 -59 -128 0 -2 -22 -51 -50 -109
-27 -58 -50 -107 -50 -109 0 -2 -26 -60 -59 -127 -32 -68 -70 -149 -84 -179
-22 -50 -102 -223 -187 -405 -18 -38 -75 -162 -127 -275 -53 -113 -112 -241
-133 -285 -21 -44 -52 -111 -70 -150 -18 -38 -47 -101 -65 -140 -18 -38 -49
-106 -70 -150 -20 -44 -50 -107 -65 -140 -15 -33 -47 -100 -70 -150 -23 -49
-55 -117 -70 -150 -44 -97 -90 -195 -123 -265 -18 -36 -32 -67 -32 -70 -1 -3
-20 -43 -42 -90 -22 -47 -53 -112 -68 -145 -15 -33 -54 -116 -86 -184 -33 -68
-59 -125 -59 -126 0 -2 -29 -65 -65 -140 -36 -76 -65 -138 -65 -140 0 -2 -24
-54 -54 -116 -29 -63 -81 -172 -114 -244 -33 -71 -79 -170 -102 -220 -23 -49
-56 -119 -72 -155 -97 -208 -117 -251 -260 -555 -54 -115 -98 -210 -98 -212 0
-1 24 -3 53 -5 28 -2 -123 -4 -338 -6 -628 -4 -912 -10 -937 -18 -36 -11 -67
-54 -75 -104 -4 -25 -6 -157 -5 -295 2 -137 5 -1071 7 -2075 1 -1004 5 -1852
8 -1884 4 -33 11 -64 17 -70 5 -5 10 -18 10 -28 0 -10 11 -25 26 -34 24 -16
27 -16 52 3 18 13 40 19 67 17 104 -6 804 -17 1085 -16 173 0 691 3 1150 7
685 6 9317 10 10985 5 435 -1 554 1 740 15 212 16 213 17 235 88 18 60 26 509
16 917 -3 113 -8 617 -12 1120 -7 1095 -8 1194 -28 2198 -2 74 -6 106 -17 117
-8 8 -41 16 -74 19 -101 9 -686 25 -1103 30 -144 2 -185 5 -196 17 -7 7 -71
110 -140 227 -226 379 -468 745 -689 1041 l-100 134 1 104 c1 108 -12 172 -50
248 -50 98 -140 175 -219 184 -4 1 -32 45 -64 98 -32 54 -68 114 -81 133 -19
30 -23 49 -25 127 -2 102 -20 170 -64 232 -32 48 -102 97 -158 112 -34 9 -42
17 -64 67 -15 31 -44 86 -65 120 -27 46 -35 68 -29 80 12 24 24 98 23 148 -3
106 -31 190 -88 253 -54 61 -119 92 -193 94 l-56 2 -73 130 c-68 120 -89 157
-160 285 -13 25 -47 86 -75 135 -28 50 -64 115 -80 145 -16 30 -50 91 -75 135
-25 44 -56 100 -69 125 -13 25 -28 52 -33 60 -6 8 -48 85 -95 170 -47 85 -89
162 -95 170 -10 17 -56 99 -115 205 -21 39 -48 86 -60 105 -12 19 -39 67 -60
105 -21 39 -53 94 -72 123 -18 29 -33 54 -33 57 0 5 -82 146 -142 242 -21 34
-38 64 -38 66 0 2 -31 55 -69 118 -39 63 -96 157 -127 209 -228 378 -507 711
-749 890 -33 25 -62 47 -65 50 -17 18 -139 91 -216 130 -248 127 -516 157
-742 84 -75 -24 -80 -22 -81 44 0 31 -3 71 -6 87 -39 206 -109 369 -263 603
l-54 84 17 39 c35 77 5 187 -77 274 -57 63 -147 89 -189 56 -13 -10 -49 -24
-79 -31 -246 -58 -468 -169 -564 -282 l-36 -43 38 95 c22 52 123 309 226 570
103 261 196 495 206 519 17 41 29 52 147 123 314 191 450 240 893 319 82 14
146 32 188 52 127 61 227 209 289 432 17 61 33 124 36 140 5 24 59 281 83 390
2 11 7 35 10 53 9 45 19 48 65 17 55 -36 109 -124 160 -260 63 -172 97 -234
145 -268 49 -35 112 -40 166 -13 72 35 127 159 132 300 2 74 3 74 52 128 95
106 165 258 179 394 10 102 -17 146 -100 160 -58 9 -75 7 -125 -15 -250 -111
-425 -178 -490 -187 -57 -8 -119 -12 -123 -7 -5 5 -6 3 67 300 51 207 94 364
133 493 10 30 18 57 18 60 1 3 4 12 7 20 3 8 25 78 48 155 23 77 46 150 51
163 l9 23 41 -23 c80 -45 122 -111 196 -308 77 -208 127 -265 228 -264 116 2
190 116 200 310 4 78 6 81 46 125 45 48 124 159 113 159 -3 0 2 12 11 27 10
14 24 49 32 77 8 28 16 60 20 71 3 11 8 52 10 91 5 63 3 73 -18 98 -40 45
-139 59 -199 27 -19 -10 -46 -22 -60 -26 -14 -4 -91 -36 -171 -70 -133 -58
-196 -80 -255 -91 -40 -7 -109 -12 -120 -7 -7 3 0 36 24 101 132 370 172 475
253 669 50 120 104 246 120 281 16 35 29 65 29 68 0 2 13 32 29 66 135 296
270 616 287 681 23 88 15 175 -20 226 -78 112 -265 172 -671 217 -27 3 -56 7
-62 9 -24 8 -418 25 -426 19z m-2196 -1060 c-22 -69 -30 -119 -31 -186 0 -27
-4 -48 -9 -48 -16 0 -1 134 25 219 14 45 27 81 30 79 2 -3 -4 -32 -15 -64z
m147 -356 c-2 -6 -12 -12 -22 -14 -14 -2 -15 0 -5 12 14 17 32 19 27 2z m-97
-183 c-73 -35 -149 -60 -157 -52 -3 3 130 68 166 80 8 3 26 6 40 6 17 0 1 -11
-49 -34z m-821 -704 c-22 -70 -32 -131 -31 -188 0 -24 -4 -43 -10 -43 -12 0
-4 124 10 162 5 13 8 25 8 28 0 6 24 82 30 93 12 20 9 1 -7 -52z m4088 -127
c-30 -63 -77 -130 -122 -173 -55 -53 -43 -26 20 42 31 34 70 90 87 124 36 73
48 78 15 7z m-358 -165 c0 -18 -2 -19 -15 -9 -15 12 -12 30 6 30 5 0 9 -10 9
-21z m-3580 -69 c0 -5 -10 -10 -22 -10 -19 0 -20 2 -8 10 19 13 30 13 30 0z
m3510 -92 c25 -58 71 -198 64 -198 -8 0 -48 89 -75 168 -31 92 -24 111 11 30z
m-3540 -53 c0 -4 -51 -29 -138 -66 -43 -19 -92 -31 -92 -24 0 6 160 82 185 88
29 7 45 8 45 2z m3565 -1052 c-41 -71 -140 -192 -149 -183 -2 3 16 28 41 55
45 51 108 140 119 170 4 9 9 14 11 11 3 -3 -7 -27 -22 -53z m-348 -144 c2 -17
-1 -18 -12 -9 -8 7 -12 16 -9 21 9 16 20 10 21 -12z m-32 -263 c49 -150 4 -82
-51 78 -13 38 -24 74 -24 80 1 22 50 -82 75 -158z m-2520 -2576 c13 -77 64
-193 103 -237 23 -27 61 -29 103 -7 17 8 32 14 33 12 0 -2 12 -34 25 -73 60
-176 141 -299 277 -419 49 -44 113 -105 142 -135 58 -61 152 -194 152 -215 0
-7 -11 -38 -24 -67 -52 -120 -124 -388 -141 -528 -4 -30 -8 -62 -10 -72 -23
-116 -23 -501 -1 -659 3 -19 8 -62 11 -95 4 -32 8 -62 10 -65 1 -3 6 -27 9
-55 4 -27 11 -66 16 -85 5 -19 12 -51 15 -70 9 -45 13 -65 15 -65 1 0 3 -7 5
-15 31 -148 130 -434 211 -608 27 -59 26 -67 -12 -76 -75 -19 -175 -113 -222
-209 -85 -172 -78 -379 21 -617 43 -104 194 -399 317 -620 57 -102 114 -205
128 -230 13 -25 93 -182 178 -350 84 -168 175 -339 202 -380 l49 -75 -51 -33
c-108 -71 -156 -148 -156 -252 0 -105 47 -189 149 -264 53 -38 56 -44 50 -72
-9 -45 -1 -102 21 -151 20 -45 90 -121 141 -152 l31 -19 3 -108 c4 -171 60
-306 158 -381 55 -42 131 -62 155 -40 9 8 59 29 110 46 133 45 325 122 409
165 77 38 107 48 58 17 -434 -267 -473 -294 -498 -349 -18 -38 -22 -66 -22
-146 l-1 -99 -2702 0 c-1487 0 -2704 2 -2707 4 -2 2 45 121 104 264 131 316
246 595 425 1030 75 182 141 339 146 350 5 11 34 83 65 160 31 77 60 149 65
160 5 11 50 119 100 240 50 121 94 229 99 240 15 34 32 77 68 165 19 47 40 96
46 110 5 14 11 30 13 35 2 6 60 147 129 315 70 168 172 415 227 550 55 135
105 256 111 270 6 14 11 27 12 30 1 3 7 19 14 35 7 17 37 91 67 165 31 74 60
144 64 155 12 26 92 222 321 785 104 256 194 474 199 485 5 11 70 171 145 355
74 184 139 344 144 355 5 11 11 27 14 35 27 79 121 286 132 293 9 4 15 20 14
35 -1 15 10 54 24 87 38 93 267 655 377 930 40 99 78 183 83 186 5 4 11 17 12
30 1 13 3 28 4 33 2 17 10 1 16 -34z m1815 -1321 c236 -48 439 -206 690 -538
20 -27 78 -109 150 -211 111 -159 341 -538 476 -785 94 -173 291 -562 369
-730 21 -44 62 -131 91 -194 30 -62 54 -115 54 -117 0 -3 15 -37 34 -77 18
-40 57 -126 86 -192 29 -66 65 -148 81 -183 16 -35 29 -65 29 -68 0 -2 15 -37
33 -76 18 -40 40 -89 47 -108 8 -19 20 -46 27 -60 14 -28 13 -30 -39 -59 -97
-54 -118 -67 -198 -120 -47 -32 -113 -76 -146 -98 l-61 -40 -21 41 c-22 42
-93 175 -161 301 -21 39 -58 106 -81 150 -24 44 -61 111 -82 148 -21 38 -38
71 -38 73 0 2 -52 99 -116 216 -64 117 -132 241 -151 276 -18 34 -42 78 -53
97 -11 19 -36 65 -56 102 -21 37 -48 85 -61 105 -13 21 -23 40 -23 42 0 5
-161 287 -261 458 -57 97 -69 123 -65 151 5 44 -29 128 -161 397 -107 217
-122 248 -179 387 -71 170 -106 244 -208 438 -55 103 -166 275 -178 275 -4 0
-8 4 -8 10 0 11 98 5 180 -11z m-488 -757 c109 -221 131 -263 242 -457 101
-177 110 -195 156 -309 51 -128 89 -183 148 -212 41 -21 46 -30 225 -385 201
-398 312 -612 417 -804 15 -27 43 -79 62 -115 67 -123 111 -205 163 -300 29
-52 69 -126 90 -165 21 -38 69 -125 107 -191 37 -67 68 -127 68 -132 0 -6 3
-12 8 -14 7 -3 42 -62 42 -72 0 -3 -48 -30 -107 -61 -150 -76 -238 -126 -268
-153 -26 -22 -27 -23 -41 -5 -7 10 -14 23 -14 29 0 21 -135 275 -240 454 -56
96 -114 195 -128 220 -14 25 -35 61 -47 80 -21 34 -100 176 -180 325 -93 173
-211 365 -276 451 -22 28 -39 54 -39 58 0 9 -66 189 -86 234 -8 17 -20 47 -28
65 -8 17 -26 58 -40 89 -184 403 -257 601 -301 818 -19 91 -21 104 -30 195 -4
33 -9 71 -12 85 -8 45 -14 490 -6 490 4 0 56 -98 115 -218z m3034 -3311 c20
-45 20 -50 5 -55 -65 -22 -287 -166 -360 -235 -50 -47 -52 -48 -63 -27 -6 11
-22 40 -35 64 -18 30 -21 41 -10 36 19 -7 37 2 172 92 141 94 205 139 224 159
26 26 45 17 67 -34z m-946 -485 c0 -3 13 -28 30 -56 21 -35 26 -52 17 -55 -51
-16 -135 -49 -202 -80 -167 -78 -211 -98 -260 -117 -71 -28 -110 -47 -188 -91
l-68 -38 -52 16 c-29 9 -58 19 -66 21 -8 2 69 46 170 97 101 52 204 105 229
119 25 14 81 44 124 67 96 51 161 95 201 136 l30 30 18 -22 c9 -11 17 -24 17
-27z m1398 -245 c7 -13 11 -26 9 -27 -1 -1 -43 -22 -93 -47 -138 -67 -303
-167 -348 -209 -27 -24 -31 -23 -54 16 l-20 34 87 56 c48 30 133 88 188 128
98 71 104 73 160 74 54 0 60 -2 71 -25z m-958 -553 c0 -5 -17 -16 -37 -24 -21
-9 -66 -29 -101 -45 -35 -16 -66 -29 -68 -29 -3 0 -48 -20 -101 -45 -52 -25
-97 -45 -99 -45 -2 0 -67 -31 -144 -69 -77 -38 -140 -68 -140 -66 0 2 33 23
73 47 39 23 77 46 82 51 40 32 118 73 158 84 43 12 183 87 297 161 45 29 45
29 63 9 9 -10 17 -23 17 -29z m1376 -295 c43 -76 87 -154 98 -173 10 -19 51
-91 91 -160 40 -69 82 -141 93 -160 10 -19 58 -101 104 -182 47 -80 88 -153
91 -162 5 -14 -3 -16 -56 -16 -34 -1 -164 -3 -289 -5 l-226 -4 -113 202 c-62
111 -121 218 -132 237 -11 19 -39 69 -62 110 -70 124 -115 209 -115 218 0 5
39 23 88 41 104 39 263 122 312 162 19 15 36 28 36 29 1 0 37 -62 80 -137z
m-993 -415 c21 -40 60 -116 88 -168 165 -310 157 -290 121 -290 -23 0 -32 9
-57 58 -16 31 -70 124 -120 205 -121 199 -135 221 -135 227 0 5 50 37 60 39 3
1 23 -32 43 -71z m-620 -376 c20 -43 37 -81 37 -84 0 -3 -49 -6 -109 -6 l-108
0 -17 35 c-19 41 -19 40 49 78 28 15 59 34 70 41 11 8 24 14 30 14 6 0 28 -35
48 -78z m-5556 -884 c-3 -7 -5 -2 -5 12 0 14 2 19 5 13 2 -7 2 -19 0 -25z
m1013 -45 c0 -42 -4 -73 -8 -67 -8 9 -4 144 4 144 2 0 4 -35 4 -77z m4060 -9
c0 -40 -4 -63 -10 -59 -5 3 -8 16 -6 28 3 12 5 39 5 60 2 65 11 40 11 -29z
m4001 -58 c-9 -21 -16 17 -11 71 l4 58 6 -60 c3 -33 4 -64 1 -69z m-12051 53
c0 -33 -4 -58 -8 -55 -5 3 -8 15 -6 28 1 13 3 38 3 56 2 58 11 34 11 -29z
m10051 -37 c-7 -43 -16 -5 -12 50 l5 53 6 -40 c3 -22 3 -51 1 -63z m974 44 c1
-24 -2 -51 -7 -58 -5 -8 -8 11 -7 50 3 70 10 75 14 8z m-10030 -10 c1 -19 -2
-41 -6 -48 -5 -8 -9 9 -9 41 0 59 11 64 15 7z m1982 -6 c0 -27 -4 -50 -9 -50
-4 0 -6 21 -4 48 5 55 5 52 10 52 3 0 4 -22 3 -50z m1998 -5 c-3 -54 -15 -55
-15 -1 0 26 4 45 9 42 5 -3 8 -22 6 -41z m2083 5 c0 -22 -5 -43 -10 -46 -9 -6
-10 61 -1 79 8 15 12 5 11 -33z"/>
</g>
</svg>
